<svg id="Capa_1" data-name="Capa 1" xmlns="http://www.w3.org/2000/svg" viewBox="0 0 119.78 70"><defs><style>.cls-1{fill:none;}.cls-2{fill:#58595b;}.cls-3{fill:#808285;}.cls-4{fill:#b03e36;}.cls-5{fill:#838788;}.cls-6{fill:#414042;}</style></defs><rect class="cls-1" x="-255.22" y="-45.15" width="578" height="177.36"/><rect class="cls-1" x="-255.22" y="-45.15" width="578" height="177.36"/><path class="cls-2" d="M17.75,49.38a9.27,9.27,0,0,0,3.5,1.91,12.08,12.08,0,0,0,3.7.47,12.16,12.16,0,0,0,3.71-.47,9.42,9.42,0,0,0,3.5-1.91Z"/><path class="cls-3" d="M14.42,40.5v1.66c0,.32,0,.64.05,1h0a8.41,8.41,0,0,1,4.24.28h0V40.87a6.66,6.66,0,0,0-4.29-.37m.31,4.06a9.48,9.48,0,0,0,2.05,3.86h1.37V46.74l.56-.49V45a6.49,6.49,0,0,0-4-.42h0m3.46-5.44a1.45,1.45,0,0,1,0-.29V37.62H14.42V39a8.87,8.87,0,0,1,3.77.11m4.6,7.55a1.14,1.14,0,0,1,.16.57v1.18h4V47.24a1.06,1.06,0,0,1,.17-.57,12.43,12.43,0,0,1-4.33,0m9-9.05v1.21a1,1,0,0,1,0,.29A8.91,8.91,0,0,1,35.49,39V37.62Zm-.56,3.25v2.52h0a8.42,8.42,0,0,1,4.24-.28h0c0-.31.05-.63.05-1V40.5a6.68,6.68,0,0,0-4.3.37m0,4.11v1.27l.56.49v1.68h1.37a9.48,9.48,0,0,0,2.05-3.86h0a6.51,6.51,0,0,0-4,.42M27,39.34V37.62H23v1.71l-.56.5V41a9.35,9.35,0,0,0,2.56.31A9.3,9.3,0,0,0,27.51,41V39.83Zm-4.56,3.14v2.59a9.35,9.35,0,0,0,2.56.31,9.3,9.3,0,0,0,2.56-.31V42.48a12.27,12.27,0,0,1-5.12,0"/><polygon class="cls-4" points="29.36 11.82 26.58 11.82 26.58 9.16 23.32 9.16 23.32 11.82 20.54 11.82 20.54 15.09 23.32 15.09 23.32 21.61 26.58 21.61 26.58 15.09 29.36 15.09 29.36 11.82"/><path class="cls-5" d="M22.15,46.88l-.24-.2a.48.48,0,0,1-.16-.36V39.75a.46.46,0,0,1,.16-.35l.24-.21a.45.45,0,0,0,.16-.36V37.65H18.79v1.18a.48.48,0,0,0,.16.36l.24.21a.46.46,0,0,1,.16.35v6.57a.48.48,0,0,1-.16.36l-.24.2a.48.48,0,0,0-.16.36v1.18h3.52V47.24a.45.45,0,0,0-.16-.36m9-8.05V37.65H27.59v1.18a.48.48,0,0,0,.16.36l.24.21a.46.46,0,0,1,.16.35v6.57a.48.48,0,0,1-.16.36l-.24.2a.48.48,0,0,0-.16.36v1.18h3.53V47.24a.46.46,0,0,0-.17-.36l-.23-.2a.49.49,0,0,1-.17-.36V39.75a.47.47,0,0,1,.17-.35l.23-.21a.46.46,0,0,0,.17-.36"/><path class="cls-3" d="M23.28,30v-1.5a0,0,0,0,0,0,0H21.74a0,0,0,0,0,0,0V30h1.52l0,0m.4,1.46a2.11,2.11,0,0,0-1.06,1.87v3.38h4.66V33.4a2.36,2.36,0,0,0-3.6-2m4.48-3H26.65a0,0,0,0,0,0,0V30l0,0h1.51a0,0,0,0,0,0,0v-1.5a0,0,0,0,0,0,0M25,22.35c-3.52,0-7.4.12-10.53.25V36.67h3.43l.49-11.09a.25.25,0,0,1,.25-.25h3.06v1.51h1.57v-3h3.31v3a0,0,0,0,0,0,0H28.1V25.33h3.31v1.52l.49,9.82h3.59V22.6c-3.17-.13-7.08-.25-10.54-.25"/><path class="cls-2" d="M27.22,15.74v5.89c3.11,0,6.36.16,9,.27V42.16a10.28,10.28,0,0,1-9.54,10.23c-.53,0-1.12.08-1.74.08s-1.2,0-1.73-.08a10.28,10.28,0,0,1-9.54-10.23V21.9c2.62-.12,5.86-.23,9-.27V15.74c-7.25.09-14.89.56-14.89.56V42.16A16.17,16.17,0,0,0,24,58.32h2A16.16,16.16,0,0,0,42.11,42.16V16.3s-7.77-.47-14.89-.56m3.36,4.18a1.15,1.15,0,1,1,1.15-1.15,1.15,1.15,0,0,1-1.15,1.15m-11.23-2.3a1.16,1.16,0,1,1-1.15,1.15,1.16,1.16,0,0,1,1.15-1.15m-8.46.89a1.15,1.15,0,1,1-1.15,1.15,1.15,1.15,0,0,1,1.15-1.15m-.28,8.15a1.15,1.15,0,1,1-1.16,1.15,1.14,1.14,0,0,1,1.16-1.15m-1.16,10a1.15,1.15,0,1,1,2.3,0,1.15,1.15,0,1,1-2.3,0m2.24,11.19a1.16,1.16,0,1,1,1.15-1.16,1.16,1.16,0,0,1-1.15,1.16M17,54.1A1.15,1.15,0,1,1,18.15,53,1.15,1.15,0,0,1,17,54.1m8.19,2.34-.23,0a1.16,1.16,0,0,1,0-2.31.85.85,0,0,1,.23,0,1.15,1.15,0,0,1,.93,1.13,1.17,1.17,0,0,1-.93,1.13m7.74-2.34A1.15,1.15,0,1,1,34.08,53a1.15,1.15,0,0,1-1.15,1.15M39,18.51a1.15,1.15,0,1,1-1.15,1.15A1.15,1.15,0,0,1,39,18.51m-.8,29.31a1.16,1.16,0,1,1,1.15-1.15,1.15,1.15,0,0,1-1.15,1.15m1.09-10a1.16,1.16,0,1,1,1.15-1.16,1.15,1.15,0,0,1-1.15,1.16m0-8.83a1.15,1.15,0,1,1,1.15-1.15A1.14,1.14,0,0,1,39.32,29"/><path class="cls-6" d="M23.81,55.31A1.15,1.15,0,0,1,25,54.16a.86.86,0,0,1,.23,0,.86.86,0,0,0-.23,0,1.15,1.15,0,0,0,0,2.3.85.85,0,0,0,.23,0,.85.85,0,0,1-.23,0,1.16,1.16,0,0,1-1.15-1.15"/><path class="cls-6" d="M25.19,54.18a1.15,1.15,0,0,1,0,2.25,1.15,1.15,0,0,0,0-2.25"/><path class="cls-3" d="M5.47,44.34a1.34,1.34,0,0,0-1.89,0l-.77.77a1.34,1.34,0,0,0,0,1.89l.77.77a1.34,1.34,0,0,0,1.89,0L6.24,47a1.34,1.34,0,0,0,0-1.89ZM3.25,36.49a1.32,1.32,0,0,0,1.89,0l.77-.77a1.33,1.33,0,0,0,0-1.88l-.77-.78a1.34,1.34,0,0,0-1.89,0l-.77.78a1.33,1.33,0,0,0,0,1.88Zm7.23,17.38a1.34,1.34,0,0,0-1.89,0l-.77.77a1.34,1.34,0,0,0,0,1.89l.77.77a1.34,1.34,0,0,0,1.89,0l.77-.77a1.34,1.34,0,0,0,0-1.89Zm34.29-28a1.34,1.34,0,0,0,1.89,0l.77-.77a1.34,1.34,0,0,0,0-1.89l-.77-.77a1.34,1.34,0,0,0-1.89,0L44,23.2a1.34,1.34,0,0,0,0,1.89Zm-41.52,0a1.34,1.34,0,0,0,1.89,0l.77-.77a1.34,1.34,0,0,0,0-1.89l-.77-.77a1.34,1.34,0,0,0-1.89,0l-.77.77a1.34,1.34,0,0,0,0,1.89ZM19.6,60a1.34,1.34,0,0,0-1.89,0l-.77.77a1.34,1.34,0,0,0,0,1.89l.77.77a1.34,1.34,0,0,0,1.89,0l.77-.77a1.34,1.34,0,0,0,0-1.89Zm12.59,0a1.33,1.33,0,0,0-1.88,0l-.77.77a1.34,1.34,0,0,0,0,1.89l.77.77a1.33,1.33,0,0,0,1.88,0l.78-.77a1.34,1.34,0,0,0,0-1.89Zm14.47-26.9a1.34,1.34,0,0,0-1.89,0l-.78.78a1.33,1.33,0,0,0,0,1.88l.78.77a1.32,1.32,0,0,0,1.89,0l.77-.77a1.33,1.33,0,0,0,0-1.88Zm-.34,11.28a1.34,1.34,0,0,0-1.89,0l-.77.77a1.34,1.34,0,0,0,0,1.89l.77.77a1.34,1.34,0,0,0,1.89,0l.77-.77a1.34,1.34,0,0,0,0-1.89Zm-5,9.53a1.33,1.33,0,0,0-1.88,0l-.78.77a1.34,1.34,0,0,0,0,1.89l.78.77a1.33,1.33,0,0,0,1.88,0l.78-.77a1.34,1.34,0,0,0,0-1.89Z"/><path class="cls-4" d="M57.15,34.92l1.66-3.75a10.55,10.55,0,0,0,5,1.39c1.47,0,2-.3,2-.83,0-1.92-8.46-.37-8.46-6.07,0-2.84,2.38-5.16,7.13-5.16a12.24,12.24,0,0,1,5.77,1.33l-1.55,3.74a9.53,9.53,0,0,0-4.27-1.14c-1.5,0-2,.44-2,1,0,1.83,8.46.3,8.46,5.94,0,2.8-2.38,5.16-7.12,5.16a13.71,13.71,0,0,1-6.67-1.58"/><polygon class="cls-4" points="85.19 32.26 85.19 36.15 72.47 36.15 72.47 20.85 84.91 20.85 84.91 24.74 77.54 24.74 77.54 26.53 84.01 26.53 84.01 30.25 77.54 30.25 77.54 32.26 85.19 32.26"/><polygon class="cls-4" points="103.31 20.85 96.84 36.15 91.77 36.15 85.3 20.85 90.85 20.85 94.5 29.79 98.24 20.85 103.31 20.85"/><path class="cls-2" d="M57.18,46.73l.39-.88a3.39,3.39,0,0,0,2,.67c.94,0,1.34-.34,1.34-.79,0-1.31-3.61-.45-3.61-2.71,0-1,.78-1.82,2.45-1.82a3.9,3.9,0,0,1,2,.54l-.35.88a3.42,3.42,0,0,0-1.68-.48c-.94,0-1.32.37-1.32.83,0,1.29,3.6.45,3.6,2.68,0,1-.79,1.81-2.45,1.81a3.94,3.94,0,0,1-2.4-.73"/><path class="cls-2" d="M67.39,45.4H63.75a1.41,1.41,0,0,0,1.51,1.11,1.66,1.66,0,0,0,1.26-.5l.58.67a2.61,2.61,0,0,1-4.43-1.63,2.3,2.3,0,0,1,2.4-2.37,2.26,2.26,0,0,1,2.34,2.4c0,.08,0,.21,0,.32m-3.64-.72h2.63a1.33,1.33,0,0,0-2.63,0"/><path class="cls-2" d="M68.07,45.05a2.34,2.34,0,0,1,2.51-2.37,2.08,2.08,0,0,1,2,1.08l-.83.48a1.33,1.33,0,0,0-1.16-.64,1.45,1.45,0,0,0,0,2.9,1.33,1.33,0,0,0,1.16-.64l.83.48a2.11,2.11,0,0,1-2,1.09,2.35,2.35,0,0,1-2.51-2.38"/><path class="cls-2" d="M76.18,42.68v1l-.25,0a1.26,1.26,0,0,0-1.34,1.43v2.25H73.5V42.73h1v.68a1.83,1.83,0,0,1,1.65-.73"/><path class="cls-2" d="M81.4,45.4H77.76a1.41,1.41,0,0,0,1.51,1.11,1.66,1.66,0,0,0,1.26-.5l.58.67a2.61,2.61,0,0,1-4.43-1.63,2.3,2.3,0,0,1,2.4-2.37,2.26,2.26,0,0,1,2.34,2.4c0,.08,0,.21,0,.32m-3.64-.72h2.63a1.33,1.33,0,0,0-2.63,0"/><path class="cls-2" d="M85.25,47.12a1.69,1.69,0,0,1-1,.31,1.42,1.42,0,0,1-1.6-1.56V43.64h-.76v-.87h.76V41.71H83.7v1.06h1.24v.87H83.7v2.2c0,.45.22.7.64.7a1,1,0,0,0,.61-.19Z"/><path class="cls-2" d="M90,44.65v2.72H89v-.56a1.64,1.64,0,0,1-1.46.62c-1.06,0-1.72-.58-1.72-1.39s.52-1.38,1.92-1.38h1.2v-.07c0-.63-.38-1-1.15-1a2.36,2.36,0,0,0-1.41.46L86,43.25a3.25,3.25,0,0,1,2-.57c1.33,0,2.11.63,2.11,2m-1.09,1.27v-.54H87.82c-.74,0-.94.28-.94.62s.33.64.89.64a1.17,1.17,0,0,0,1.17-.72"/><path class="cls-2" d="M94.1,42.68v1l-.25,0a1.26,1.26,0,0,0-1.35,1.43v2.25H91.42V42.73h1v.68a1.82,1.82,0,0,1,1.65-.73"/><path class="cls-2" d="M96,40.91h1.28L95.78,42.1h-.94Zm-1,1.82h1.09v4.64H95Z"/><path class="cls-2" d="M101.41,44.65v2.72h-1v-.56a1.64,1.64,0,0,1-1.46.62c-1.06,0-1.73-.58-1.73-1.39s.52-1.38,1.93-1.38h1.2v-.07c0-.63-.38-1-1.16-1a2.3,2.3,0,0,0-1.4.46l-.43-.79a3.29,3.29,0,0,1,2-.57c1.34,0,2.11.63,2.11,2m-1.08,1.27v-.54H99.21c-.74,0-.94.28-.94.62s.33.64.89.64a1.17,1.17,0,0,0,1.17-.72"/><path class="cls-2" d="M62.13,51.35v6.44h-1v-.6a1.91,1.91,0,0,1-1.54.66,2.38,2.38,0,0,1,0-4.75,1.87,1.87,0,0,1,1.49.63V51.35Zm-1.07,4.12a1.38,1.38,0,1,0-1.38,1.46,1.36,1.36,0,0,0,1.38-1.46"/><path class="cls-2" d="M67.9,55.82H64.26a1.4,1.4,0,0,0,1.5,1.11,1.66,1.66,0,0,0,1.26-.5l.58.67a2.37,2.37,0,0,1-1.87.75,2.35,2.35,0,0,1-2.56-2.37,2.31,2.31,0,0,1,2.4-2.38,2.26,2.26,0,0,1,2.34,2.4c0,.09,0,.22,0,.32m-3.65-.72h2.63A1.26,1.26,0,0,0,65.57,54a1.28,1.28,0,0,0-1.32,1.13"/><polygon class="cls-2" points="76.02 56.85 76.02 57.79 71.46 57.79 71.46 51.71 75.9 51.71 75.9 52.66 72.59 52.66 72.59 54.24 75.52 54.24 75.52 55.17 72.59 55.17 72.59 56.85 76.02 56.85"/><path class="cls-2" d="M81.67,51.35v6.44h-1v-.6a1.9,1.9,0,0,1-1.54.66,2.38,2.38,0,0,1,0-4.75,1.91,1.91,0,0,1,1.5.63V51.35ZM80.6,55.47a1.38,1.38,0,1,0-1.38,1.46,1.36,1.36,0,0,0,1.38-1.46"/><path class="cls-2" d="M87.59,53.16v4.63h-1V57.2a1.86,1.86,0,0,1-1.49.65,1.84,1.84,0,0,1-2-2.05V53.16h1.09v2.5c0,.84.4,1.24,1.08,1.24a1.22,1.22,0,0,0,1.27-1.4V53.16Z"/><path class="cls-2" d="M88.63,55.47a2.34,2.34,0,0,1,2.51-2.37,2.1,2.1,0,0,1,2,1.08l-.83.49A1.32,1.32,0,0,0,91.13,54a1.46,1.46,0,0,0,0,2.91,1.34,1.34,0,0,0,1.16-.65l.83.49a2.12,2.12,0,0,1-2,1.08,2.35,2.35,0,0,1-2.51-2.38"/><path class="cls-2" d="M97.94,55.08v2.71h-1v-.56a1.63,1.63,0,0,1-1.45.62c-1.06,0-1.73-.58-1.73-1.39s.52-1.38,1.93-1.38h1.19V55c0-.63-.38-1-1.15-1a2.29,2.29,0,0,0-1.41.46l-.42-.79a3.19,3.19,0,0,1,2-.58c1.34,0,2.11.64,2.11,2m-1.09,1.26V55.8H95.73c-.73,0-.93.28-.93.62s.33.64.88.64a1.17,1.17,0,0,0,1.17-.72"/><path class="cls-2" d="M99,55.47a2.34,2.34,0,0,1,2.51-2.37,2.09,2.09,0,0,1,2,1.08l-.83.49a1.32,1.32,0,0,0-1.16-.65,1.46,1.46,0,0,0,0,2.91,1.34,1.34,0,0,0,1.16-.65l.83.49a2.11,2.11,0,0,1-2,1.08A2.35,2.35,0,0,1,99,55.47"/><path class="cls-2" d="M104.27,51.74a.67.67,0,0,1,.7-.65.64.64,0,0,1,.69.62.7.7,0,0,1-1.39,0m.15,1.42h1.08v4.63h-1.08Z"/><path class="cls-2" d="M106.55,55.47A2.47,2.47,0,1,1,109,57.85a2.33,2.33,0,0,1-2.46-2.38m3.85,0A1.38,1.38,0,1,0,109,56.92a1.36,1.36,0,0,0,1.39-1.45m-1-4.14h1.27l-1.51,1.19h-.93Z"/><path class="cls-2" d="M117.1,55.14v2.65H116V55.27c0-.82-.41-1.22-1.11-1.22a1.23,1.23,0,0,0-1.29,1.4v2.34h-1.09V53.16h1v.6a2,2,0,0,1,1.59-.66,1.82,1.82,0,0,1,1.94,2"/><rect class="cls-1" x="1.96" y="9.17" width="115.14" height="54.75"/></svg>