<svg xmlns="http://www.w3.org/2000/svg" viewBox="0 0 128 128"><defs><style>.cls-1{fill:none;}.cls-2{fill:#595a5c;}.cls-3{fill:#dab357;}</style></defs><title>vertical</title><g id="Capa_2" data-name="Capa 2"><g id="Capa_1-2" data-name="Capa 1"><rect class="cls-1" width="128" height="128"/><path class="cls-2" d="M123.2,13.9H58.4a2.3,2.3,0,0,0-2.3,2.3V59.8a1.1,1.1,0,0,1-1,1H4.8a2.3,2.3,0,0,0-2.3,2.3v44.7a2.4,2.4,0,0,0,4.7,0V66.5a.9.9,0,0,1,1-1H58.4a2.4,2.4,0,0,0,2.4-2.4V19.6a.9.9,0,0,1,1-1h61.4a2.4,2.4,0,0,0,2.3-2.4A2.3,2.3,0,0,0,123.2,13.9Z"/><path class="cls-3" d="M100.2,39a4.6,4.6,0,0,0-3.8-2,4.7,4.7,0,0,0-3.9,2L73.6,65.5a4.6,4.6,0,0,0,3.8,7.4h5.7a1.1,1.1,0,0,1,1,1v28.5a4.7,4.7,0,0,0,4.7,4.7H104a4.7,4.7,0,0,0,4.6-4.7V73.9a1.1,1.1,0,0,1,1-1h5.7a4.6,4.6,0,0,0,4.2-2.5,4.8,4.8,0,0,0-.3-4.9Zm16,29.7a.9.9,0,0,1-.9.5H105v33.2a1,1,0,0,1-1,1H88.8a.9.9,0,0,1-1-1V69.2H77.4a1.1,1.1,0,0,1-.9-.5.9.9,0,0,1,.1-1l19-26.6a1,1,0,0,1,1.6,0l19,26.6A.9.9,0,0,1,116.2,68.7Z"/></g></g></svg>