<svg xmlns="http://www.w3.org/2000/svg" viewBox="0 0 499.2 38.9"><defs><style>.cls-1{fill:#9d244f;}.cls-2{fill:#808386;}</style></defs><title>usicamm-hor</title><g id="Capa_2" data-name="Capa 2"><g id="Capa_1-2" data-name="Capa 1"><path class="cls-1" d="M15.1,5.8a54.3,54.3,0,0,0-.5,9V21c0,7.3,2.1,11.9,9,11.9a11.3,11.3,0,0,0,6.9-2.1c1.4-4.1,1.2-9.9,1.2-14.3s-.1-9.4-.5-10.3-3.4-1.5-5.3-2L26.6.9H42.7l.7,3.3L38.5,5.8c-.3,3.5-.4,8.1-.4,16.6,0,10.9-6.4,16.5-16.5,16.5S5.1,32.7,5.1,20.6V14.8c0-2.9,0-7.6-.6-8.4S1.7,4.7,0,4.2L.7.9H19l.7,3.3Z"/><path class="cls-1" d="M48.1,11.6C48.1,4.7,55.4,0,63.8,0A24.4,24.4,0,0,1,75.6,3l.9,1.6c-.4,2.4-1.4,6.7-1.8,8a56.3,56.3,0,0,1-5.8-.3,25.7,25.7,0,0,0-1.4-6.1,7.5,7.5,0,0,0-4.8-1.4,9.2,9.2,0,0,0-4,.8,5.7,5.7,0,0,0-.9,3.6c0,8.9,19.2,6,19.2,19,0,6.4-6.2,10.7-15,10.7-6.2,0-10.9-1.3-14-3.3,0-2.9.1-5.7.3-8.6a31.1,31.1,0,0,1,6.1-.2,32.8,32.8,0,0,0,1.8,6.1,11.3,11.3,0,0,0,5.7,1.2,12,12,0,0,0,4.2-.7,5.5,5.5,0,0,0,1.2-3.9C67.3,22.5,48.1,24.5,48.1,11.6Z"/><path class="cls-1" d="M88.1,33.1c.3-3,.5-6,.5-9V14.8c0-2.9-.2-7.5-.8-8.4s-2.7-1.7-4.3-2.2L84.2.9h18l.7,3.3L98.3,5.8a54.3,54.3,0,0,0-.5,9v9.3c0,2.8.2,7.5.8,8.4s2.7,1.7,4.3,2.2l-.7,3.3h-18l-.7-3.3Z"/><path class="cls-1" d="M133.3,31.9q1.2-3.3,2.1-6.6c1.4,0,4.9.1,6.3.3.1,2.3.2,5.9.2,7.9l-.8,1.7A27.1,27.1,0,0,1,127,38.9c-12.3,0-19.9-7.1-19.9-18.8S116.9,0,128.1,0a30.7,30.7,0,0,1,13.7,3.2l.9,1.7c-.5,2.8-1.4,6.9-2.1,9.5a36.2,36.2,0,0,1-5.7-.2A32,32,0,0,0,133,7.3a12.2,12.2,0,0,0-6.2-1.6,10.9,10.9,0,0,0-5.6,1.2,20.6,20.6,0,0,0-3.9,12.5c0,8.1,4,13.5,10.9,13.5A11.1,11.1,0,0,0,133.3,31.9Z"/><path class="cls-1" d="M163.8,38H147.1l-.7-3.3,4.4-2.1c3.2-6.4,7.2-16.4,10.9-26.1l1.8-5.1a40.2,40.2,0,0,1,9.8-.9,41.8,41.8,0,0,0,1.9,6c3.9,9.8,8.2,21.5,10.4,26.4l4.9,1.8-.6,3.3H171.6l-.7-3.3,4.6-1.6c-.6-1.9-1.3-4.1-2.2-6.5l-13.1.3-1.7,5.7,6,2.1Zm7.9-16c-1.5-4.4-3.2-9.1-5-13.7-1.7,4.2-3.3,8.9-4.9,13.5Z"/><path class="cls-1" d="M210.6,38H194.5l-.7-3.3,4.9-1.6c.3-2.9.8-9.4,1.1-15.1.4-7.3.4-10.3,0-11.5s-2.8-1.8-4.3-2.3l.7-3.3h17.7c1.5,5.2,5.2,15.6,8,22.2,2.8-7.5,6.8-17.3,8.1-22.2h16.7l.6,3.3-4.8,2.1,1,17.4c.2,5.1.5,7.8,1.2,8.8s2.7,1.7,4.3,2.2l-.7,3.3h-18l-.7-3.3,5.1-1.6c.1-3.1-.8-15.6-.9-24.6l-9.9,25.3a46.9,46.9,0,0,1-7.5,0c-2.2-5.3-6.9-17.7-10.4-25.3l-.3,11.3c-.2,8.3-.3,11.4.1,12.5s3.2,1.7,5.4,2.4Z"/><path class="cls-1" d="M269.5,38H253.4l-.7-3.3,4.9-1.6c.4-2.9.9-9.4,1.1-15.1.4-7.3.4-10.3,0-11.5s-2.7-1.8-4.3-2.3l.7-3.3h17.7c1.6,5.2,5.3,15.6,8.1,22.2,2.8-7.5,6.7-17.3,8-22.2h16.7l.6,3.3-4.8,2.1,1,17.4c.3,5.1.6,7.8,1.3,8.8s2.6,1.7,4.3,2.2l-.7,3.3H289.2l-.7-3.3,5.1-1.6c.1-3.1-.7-15.6-.9-24.6l-9.9,25.3a45.7,45.7,0,0,1-7.4,0c-2.3-5.3-7-17.7-10.4-25.3l-.4,11.3c-.2,8.3-.3,11.4.1,12.5s3.2,1.7,5.5,2.4Z"/><path class="cls-2" d="M323.2,10l2.1,6.2,2,5.6,2.1,5.3c.6,1.8,1.4,3.5,2.2,5.4l2.1-5.4,2.1-5.2,2-5.7,2.1-6.2h2.7c-1.2,3.2-2.1,6-3.1,8.4l-2.4,6.5-2.2,5.5-2.3,5h-2.3c-.7-1.7-1.5-3.4-2.2-5l-2.2-5.5c-.7-1.8-1.7-4-2.5-6.5s-2-5.2-3-8.4Z"/><path class="cls-2" d="M346.2,35.4V10h14.7v2.1H348.7V21h10.9v2.1H348.7V33.2h13.1v2.2Z"/><path class="cls-2" d="M383.5,17.6a6.2,6.2,0,0,1-1.5,4.5,10.2,10.2,0,0,1-4,2.4l1.5,2a26.9,26.9,0,0,1,2,2.7l1.9,3.1a30.1,30.1,0,0,1,1.6,3.1h-2.7a16.4,16.4,0,0,0-1.6-2.9,29,29,0,0,0-1.9-2.9L377.1,27l-1.6-1.9H369V35.3h-2.4V10.5l3-.6h3.3c3.5,0,6.2.7,7.9,2A6.7,6.7,0,0,1,383.5,17.6Zm-10.3-5.7h-2.4l-1.8.2V22.8h6.8a9,9,0,0,0,2.7-.7,4.4,4.4,0,0,0,1.7-1.6,5,5,0,0,0,.7-2.9,4.5,4.5,0,0,0-.7-2.8,5.8,5.8,0,0,0-1.7-1.8,10.6,10.6,0,0,0-2.5-.9Z"/><path class="cls-2" d="M407.4,35.4,406,31.8a34,34,0,0,0-1.2-3.4H392.5c-.5,1.1-.8,2.2-1.3,3.4s-.8,2.3-1.3,3.6h-2.6L390,28c.8-2.2,1.8-4.5,2.6-6.4l2.4-6,2.6-5.6h2.2l2.6,5.6c.8,1.9,1.7,3.9,2.4,6s1.7,4.2,2.5,6.4,1.9,4.7,2.8,7.4Zm-8.7-22.6c-1,2.1-1.9,4.3-2.7,6.4s-1.9,4.6-2.8,7.1H404c-.9-2.5-1.7-4.9-2.7-7.1S399.6,14.9,398.7,12.8Z"/><path class="cls-2" d="M424,35.9a12.1,12.1,0,0,1-4.6-.8,11.4,11.4,0,0,1-3.6-2.6,11,11,0,0,1-2.4-4.2,15.4,15.4,0,0,1-1-5.6,15.9,15.9,0,0,1,1-5.7,12.9,12.9,0,0,1,2.6-4.2,12.2,12.2,0,0,1,3.8-2.6,16.3,16.3,0,0,1,4.4-.8l2.6.3,2.1.4,1.5.5.9.6-.8,2.1-2.3-1.1a10.7,10.7,0,0,0-3.5-.6,9.9,9.9,0,0,0-4.2.9,8.7,8.7,0,0,0-3.1,2.3,8.8,8.8,0,0,0-1.7,3.5,10.9,10.9,0,0,0-.6,4.4,17.6,17.6,0,0,0,.6,4.6,8.8,8.8,0,0,0,1.7,3.5,11.1,11.1,0,0,0,3,2.2,9.9,9.9,0,0,0,3.8.7,14,14,0,0,0,4.1-.5,9.9,9.9,0,0,0,2.4-.9l.7,2.2-.8.3-1.6.5-2.2.5Z"/><path class="cls-2" d="M452.8,17.6a7.4,7.4,0,0,1-1.5,4.5,10.2,10.2,0,0,1-4,2.4l1.5,2a26.1,26.1,0,0,1,1.9,2.7,43.3,43.3,0,0,1,3.6,6.2h-2.7a26.9,26.9,0,0,0-1.6-2.9l-1.9-2.9L446.2,27l-1.5-1.9h-6.4V35.3h-2.5V10.5l3.1-.6h3.3c3.5,0,6.1.7,7.9,2A6.7,6.7,0,0,1,452.8,17.6Zm-10.3-5.7h-2.4l-1.8.2V22.8H445a5.9,5.9,0,0,0,2.6-.7,4.2,4.2,0,0,0,1.9-1.6,7.2,7.2,0,0,0,.6-2.9,4.8,4.8,0,0,0-2.3-4.6,10.6,10.6,0,0,0-2.5-.9Z"/><path class="cls-2" d="M467.6,35.9a12.5,12.5,0,0,1-4.3-.7,8.3,8.3,0,0,1-2.8-2.1,8,8,0,0,1-1.7-3.3,12,12,0,0,1-.4-3.8V10h2.4V25.6a13.6,13.6,0,0,0,.5,3.6,7.2,7.2,0,0,0,1.4,2.6,6,6,0,0,0,2.1,1.4,8.7,8.7,0,0,0,2.8.5,6.9,6.9,0,0,0,2.8-.5,7.4,7.4,0,0,0,2.2-1.4,7.9,7.9,0,0,0,1.3-2.6,10.5,10.5,0,0,0,.6-3.6V10h2.4V26a12,12,0,0,1-.4,3.8,10.4,10.4,0,0,1-1.7,3.3,8.6,8.6,0,0,1-2.9,2.1A12.5,12.5,0,0,1,467.6,35.9Z"/><path class="cls-2" d="M498.9,12.2l-2.1,2.6-2.5,3.1c-.9,1.2-1.7,2.5-2.7,3.8s-1.8,2.6-2.7,3.9-1.7,2.7-2.5,4a33.5,33.5,0,0,0-2.1,3.6h14.9v2.2H481.5V33.6a25.7,25.7,0,0,1,2-3.5l2.3-3.9,2.7-4.1,2.8-3.8,2.5-3.4,2.3-2.8H482.2V10h16.7Z"/></g></g></svg>