<svg xmlns="http://www.w3.org/2000/svg" viewBox="0 0 283.5 165.9"><defs><style>.cls-1{fill:#9d244f;}.cls-2{fill:#808386;}.cls-3{fill:#dab357;}</style></defs><title>usicamm-ver1</title><g id="Capa_2" data-name="Capa 2"><g id="Capa_1-2" data-name="Capa 1"><path class="cls-1" d="M17.9,5.2a52.9,52.9,0,0,0-.4,8v5.5c0,6.5,1.8,10.6,8,10.6a10,10,0,0,0,6.1-1.8c1.3-3.7,1.1-8.9,1.1-12.8s-.1-8.4-.4-9.2-3.1-1.3-4.8-1.8L28.2.8H42.5l.6,2.9L38.8,5.2c-.3,3.1-.4,7.2-.4,14.8,0,9.7-5.7,14.7-14.7,14.7S9,29.1,9,18.4V13.2c0-2.6,0-6.8-.5-7.5a11.4,11.4,0,0,0-4-2L5.1.8H21.4L22,3.7Z"/><path class="cls-1" d="M47.3,10.3C47.3,4.2,53.8,0,61.3,0A21.3,21.3,0,0,1,71.8,2.7l.8,1.4A55.2,55.2,0,0,1,71,11.2L65.9,11a25.9,25.9,0,0,0-1.3-5.5,6.4,6.4,0,0,0-4.3-1.2,8.4,8.4,0,0,0-3.5.7A5.3,5.3,0,0,0,56,8.2c0,7.9,17.1,5.3,17.1,16.9,0,5.7-5.5,9.6-13.4,9.6-5.5,0-9.7-1.2-12.5-3,0-2.5.1-5.1.3-7.6a24.4,24.4,0,0,1,5.4-.2,33.8,33.8,0,0,0,1.7,5.4,9.6,9.6,0,0,0,5,1.1,12.1,12.1,0,0,0,3.8-.6,5.5,5.5,0,0,0,1-3.5C64.4,20.1,47.3,21.8,47.3,10.3Z"/><path class="cls-1" d="M83,29.5a71.4,71.4,0,0,0,.4-8V13.2c0-2.6-.1-6.7-.7-7.5s-2.4-1.5-3.8-2L79.5.8H95.6l.6,2.9L92.1,5.2a52.9,52.9,0,0,0-.5,8v8.3c0,2.5.2,6.7.7,7.5s2.5,1.5,3.9,1.9l-.6,3H79.5l-.6-3Z"/><path class="cls-1" d="M123.3,28.4a56.2,56.2,0,0,0,1.9-5.8,53.3,53.3,0,0,1,5.6.2c.1,2.1.1,5.3.1,7.1l-.7,1.5a24.9,24.9,0,0,1-12.5,3.3c-11,0-17.8-6.4-17.8-16.8S108.7,0,118.6,0a27.5,27.5,0,0,1,12.3,2.9l.8,1.5c-.5,2.5-1.3,6.1-1.9,8.4a43.4,43.4,0,0,1-5.1-.1A27.2,27.2,0,0,0,123,6.5a9.8,9.8,0,0,0-5.5-1.4,9.6,9.6,0,0,0-5,1.1A18.3,18.3,0,0,0,109,17.3c0,7.2,3.6,12,9.7,12A9,9,0,0,0,123.3,28.4Z"/><path class="cls-1" d="M150.5,33.9H135.6l-.6-3,3.9-1.8c2.8-5.7,6.4-14.7,9.7-23.3l1.6-4.6a51.2,51.2,0,0,1,8.7-.8,42.6,42.6,0,0,0,1.7,5.4c3.5,8.7,7.3,19.2,9.3,23.5l4.4,1.6-.6,3H157.4l-.6-3,4.1-1.4c-.5-1.7-1.2-3.6-2-5.8l-11.6.3-1.6,5.1,5.4,1.8Zm7-14.3c-1.3-3.9-2.8-8.1-4.4-12.2-1.6,3.7-3,7.9-4.4,12Z"/><path class="cls-1" d="M192.2,33.9H177.8l-.6-3,4.4-1.4c.2-2.6.7-8.4,1-13.5s.3-9.1,0-10.2-2.5-1.6-3.9-2.1l.6-2.9h15.8c1.4,4.6,4.7,13.9,7.2,19.8,2.5-6.7,6-15.4,7.2-19.8h14.9l.5,2.9-4.3,1.9.9,15.5c.2,4.6.5,7,1.1,7.9s2.4,1.5,3.8,1.9l-.6,3H209.7l-.6-3,4.6-1.4c.1-2.8-.7-13.9-.8-21.9L204,30.1a36.4,36.4,0,0,1-6.6,0c-2-4.7-6.2-15.7-9.3-22.5l-.3,10.1c-.2,7.3-.2,10.1.1,11.1s2.9,1.5,4.8,2.1Z"/><path class="cls-1" d="M244.7,33.9H230.3l-.6-3,4.4-1.4c.3-2.6.8-8.4,1-13.5s.3-9.1,0-10.2-2.4-1.6-3.9-2.1l.7-2.9h15.7c1.5,4.6,4.8,13.9,7.3,19.8,2.4-6.7,5.9-15.4,7.1-19.8h14.9l.5,2.9-4.3,1.9.9,15.5c.3,4.6.6,7,1.2,7.9s2.3,1.5,3.8,1.9l-.6,3H262.2l-.6-3,4.6-1.4c.1-2.8-.7-13.9-.8-21.9l-8.9,22.5a36.4,36.4,0,0,1-6.6,0c-2-4.7-6.2-15.7-9.2-22.5l-.4,10.1c-.2,7.3-.2,10.1.1,11.1s2.9,1.5,4.9,2.1Z"/><path class="cls-2" d="M44.6,136.9l2.4,6.9,2.2,6.3,2.4,6c.6,1.9,1.5,3.9,2.4,6l2.4-6,2.4-5.9c.7-2.1,1.4-4.2,2.2-6.4l2.3-6.9h3c-1.3,3.5-2.3,6.6-3.4,9.4l-2.7,7.3-2.5,6.1-2.5,5.7H52.6c-.8-2-1.7-3.8-2.5-5.7l-2.5-6.1c-.8-2.1-1.8-4.6-2.7-7.3s-2.2-5.9-3.4-9.4Z"/><path class="cls-2" d="M70.4,165.4V136.9H86.9v2.3H73.3v10H85.4v2.3H73.3v11.4H87.9v2.5Z"/><path class="cls-2" d="M112.2,145.4a6.5,6.5,0,0,1-1.7,5.1,10.3,10.3,0,0,1-4.4,2.6l1.7,2.2c.8,1,1.5,2.1,2.2,3.1l2.1,3.4a30.2,30.2,0,0,1,1.8,3.6h-3a17.4,17.4,0,0,0-1.8-3.3,30.2,30.2,0,0,0-2.1-3.3l-2-2.8-1.8-2.3H96v11.5H93.3V137.4l3.4-.7h3.6c4,0,7,.8,8.9,2.3A7.6,7.6,0,0,1,112.2,145.4ZM100.7,139H98l-2,.2v12h7.6a10.1,10.1,0,0,0,3-.7,6.1,6.1,0,0,0,2-1.9,6.8,6.8,0,0,0,0-6.4,6.1,6.1,0,0,0-2-1.9,9,9,0,0,0-2.7-1.1Z"/><path class="cls-2" d="M139.1,165.4l-1.6-4.1c-.4-1.3-.9-2.6-1.3-3.8H122.3c-.5,1.2-.9,2.5-1.4,3.8s-.9,2.6-1.5,4.1h-2.8l3-8.4c.9-2.5,1.9-5,2.8-7.2l2.8-6.7c.9-2.1,1.8-4.1,2.9-6.2h2.5l2.8,6.2c1,2.1,1.9,4.4,2.8,6.7s1.8,4.7,2.7,7.2,2.1,5.4,3.2,8.4ZM129.2,140l-3,7.2c-.9,2.3-2.1,5.1-3.1,8h12.2c-1.1-2.9-2-5.5-3-8S130.3,142.4,129.2,140Z"/><path class="cls-2" d="M157.6,165.9a14.8,14.8,0,0,1-5.1-.9,12.8,12.8,0,0,1-4-2.9,15,15,0,0,1-2.8-4.7,18.9,18.9,0,0,1-1-6.3,17.5,17.5,0,0,1,1-6.4,15.7,15.7,0,0,1,3-4.7,13.7,13.7,0,0,1,4.2-2.9,17,17,0,0,1,5-.9l2.9.3,2.3.5,1.7.5,1.1.7-1,2.3-2.6-1.2a12.8,12.8,0,0,0-8.6.3,9.7,9.7,0,0,0-3.4,2.6,12,12,0,0,0-2,3.9,14.3,14.3,0,0,0-.6,5,14.6,14.6,0,0,0,.6,5.1,9.6,9.6,0,0,0,5.3,6.4,10.3,10.3,0,0,0,4.3.8,14.4,14.4,0,0,0,4.6-.5,9,9,0,0,0,2.7-1.1l.8,2.5-.9.4-1.9.5-2.4.6Z"/><path class="cls-2" d="M189.9,145.4a7.5,7.5,0,0,1-1.7,5.1,10.3,10.3,0,0,1-4.4,2.6l1.7,2.2,2.1,3.1a37.3,37.3,0,0,1,4,7h-3a17.4,17.4,0,0,0-1.8-3.3c-.7-1.2-1.5-2.2-2.1-3.3l-2.1-2.8-1.7-2.3h-7.2v11.5h-2.9V137.4l3.6-.7H178c3.9,0,7,.8,8.9,2.3A7.6,7.6,0,0,1,189.9,145.4ZM178.4,139h-2.7l-2,.2v12h7.5a8.2,8.2,0,0,0,3-.7,7.6,7.6,0,0,0,2.1-1.9,8.7,8.7,0,0,0,.6-3.2,5.2,5.2,0,0,0-2.6-5.1,9,9,0,0,0-2.7-1.1Z"/><path class="cls-2" d="M206.5,165.9a13.1,13.1,0,0,1-4.8-.8,10.4,10.4,0,0,1-3.1-2.3,9.3,9.3,0,0,1-1.9-3.7,15.8,15.8,0,0,1-.5-4.3V136.9h2.7v17.5a17.6,17.6,0,0,0,.6,4,7.3,7.3,0,0,0,1.5,2.9,7.8,7.8,0,0,0,2.4,1.6,8.4,8.4,0,0,0,3.1.5,8.6,8.6,0,0,0,3.2-.5,9.6,9.6,0,0,0,2.5-1.6,8.7,8.7,0,0,0,1.4-2.9,13.4,13.4,0,0,0,.7-4V136.9H217v17.9a15.8,15.8,0,0,1-.5,4.3,10.9,10.9,0,0,1-1.9,3.7,12.4,12.4,0,0,1-3.2,2.3A13.6,13.6,0,0,1,206.5,165.9Z"/><path class="cls-2" d="M241.6,139.3l-2.4,2.9-2.7,3.6c-1.1,1.3-2,2.7-3,4.1s-2.1,3-3,4.5-2,3-2.9,4.4-1.6,2.7-2.4,4.1H242v2.5H222.1v-2.1c.7-1.2,1.3-2.5,2.2-3.9l2.6-4.4,3-4.5,3.2-4.4,2.9-3.7,2.4-3.2H222.9v-2.3h18.7Z"/><rect class="cls-3" y="70.2" width="283.5" height="6.27"/></g></g></svg>