<svg xmlns="http://www.w3.org/2000/svg" viewBox="0 0 608 132"><defs><style>.cls-1{fill:#9d244f;}.cls-2{fill:#808386;}.cls-3{fill:#dab357;}.cls-4{fill:#969696;}</style></defs><title>usicamm-ver</title><g id="Capa_2" data-name="Capa 2"><g id="Capa_1-2" data-name="Capa 1"><path class="cls-1" d="M165.1,5.8a58.3,58.3,0,0,0-.5,9V21c0,7.3,2.1,11.9,9,11.9a11.3,11.3,0,0,0,6.9-2.1c1.4-4.1,1.2-9.9,1.2-14.3s-.1-9.4-.5-10.3-3.4-1.5-5.3-2l.7-3.3h16.1l.7,3.3-4.9,1.6c-.3,3.5-.4,8.1-.4,16.6,0,10.9-6.4,16.5-16.5,16.5s-16.5-6.2-16.5-18.3V14.8c0-2.9,0-7.6-.6-8.4s-2.8-1.7-4.5-2.2l.7-3.3H169l.7,3.3Z"/><path class="cls-1" d="M198.1,11.6c0-6.9,7.3-11.6,15.7-11.6a24,24,0,0,1,11.8,3l.9,1.6c-.4,2.4-1.4,6.7-1.8,8a56.3,56.3,0,0,1-5.8-.3,29.3,29.3,0,0,0-1.4-6.1,7.1,7.1,0,0,0-4.8-1.4,9.3,9.3,0,0,0-4,.8,6.2,6.2,0,0,0-.9,3.6c0,8.9,19.2,6,19.2,19,0,6.4-6.2,10.7-15,10.7-6.2,0-10.9-1.3-14-3.3a82.4,82.4,0,0,1,.3-8.6,31.1,31.1,0,0,1,6.1-.2,35.9,35.9,0,0,0,1.8,6.1,10.8,10.8,0,0,0,5.7,1.2,11.4,11.4,0,0,0,4.2-.7,5.8,5.8,0,0,0,1.2-3.9C217.3,22.5,198.1,24.5,198.1,11.6Z"/><path class="cls-1" d="M238.1,33.1a75.2,75.2,0,0,0,.5-9V14.8c0-2.9-.2-7.5-.8-8.4s-2.7-1.7-4.3-2.2l.7-3.3h18l.7,3.3-4.6,1.6a58.3,58.3,0,0,0-.5,9v9.3c0,2.8.2,7.5.8,8.4s2.7,1.7,4.3,2.2l-.7,3.3h-18l-.7-3.3Z"/><path class="cls-1" d="M283.3,31.9a52.8,52.8,0,0,0,2.1-6.6c1.4,0,4.9.1,6.3.3.1,2.3.2,5.9.2,7.9l-.8,1.7A27.5,27.5,0,0,1,277,38.9c-12.3,0-19.9-7.1-19.9-18.8S266.9,0,278.1,0a30.1,30.1,0,0,1,13.7,3.2l.9,1.7c-.5,2.8-1.4,6.9-2.1,9.5a36.6,36.6,0,0,1-5.7-.2A34.6,34.6,0,0,0,283,7.3a11.9,11.9,0,0,0-6.2-1.6,11.7,11.7,0,0,0-5.6,1.2,20.7,20.7,0,0,0-3.9,12.5c0,8.1,4,13.5,10.9,13.5A10.9,10.9,0,0,0,283.3,31.9Z"/><path class="cls-1" d="M313.8,38H297.1l-.7-3.3,4.4-2.1c3.2-6.4,7.2-16.4,10.9-26.1l1.8-5.1a43.6,43.6,0,0,1,9.8-.9,40.4,40.4,0,0,0,1.9,6c3.9,9.8,8.2,21.5,10.4,26.4l4.9,1.8-.6,3.3H321.6l-.7-3.3,4.6-1.6c-.6-1.9-1.3-4.1-2.2-6.5l-13.1.3-1.7,5.7,6,2.1Zm7.9-16c-1.5-4.4-3.2-9.1-5-13.7-1.7,4.2-3.3,8.9-4.9,13.5Z"/><path class="cls-1" d="M360.6,38H344.5l-.7-3.3,4.9-1.6c.3-2.9.8-9.4,1.1-15.1.4-7.3.4-10.3,0-11.5s-2.8-1.8-4.3-2.3l.7-3.3h17.7c1.5,5.2,5.2,15.6,8,22.2,2.8-7.5,6.8-17.3,8.1-22.2h16.7l.6,3.3-4.8,2.1,1,17.4c.2,5.1.5,7.8,1.2,8.8s2.7,1.7,4.3,2.2l-.7,3.3h-18l-.7-3.3,5.1-1.6c.1-3.1-.8-15.6-.9-24.6l-9.9,25.3a46.9,46.9,0,0,1-7.5,0c-2.2-5.3-6.9-17.7-10.4-25.3l-.3,11.3c-.2,8.3-.3,11.4.1,12.5s3.2,1.7,5.4,2.4Z"/><path class="cls-1" d="M419.5,38H403.4l-.7-3.3,4.9-1.6c.4-2.9.9-9.4,1.1-15.1.4-7.3.4-10.3,0-11.5s-2.7-1.8-4.3-2.3l.7-3.3h17.7c1.6,5.2,5.3,15.6,8.1,22.2,2.8-7.5,6.7-17.3,8-22.2h16.7l.6,3.3-4.8,2.1,1,17.4c.3,5.1.6,7.8,1.3,8.8s2.6,1.7,4.3,2.2l-.7,3.3H439.2l-.7-3.3,5.1-1.6c.1-3.1-.7-15.6-.9-24.6l-9.9,25.3a45.7,45.7,0,0,1-7.4,0c-2.3-5.3-7-17.7-10.4-25.3l-.4,11.3c-.2,8.3-.3,11.4.1,12.5s3.2,1.7,5.5,2.4Z"/><path class="cls-2" d="M229.3,109.8l1.8,5.3,1.7,4.8,1.8,4.6c.5,1.5,1.2,3,1.9,4.6l1.8-4.6,1.8-4.5c.6-1.6,1.1-3.2,1.7-4.9l1.8-5.3h2.3c-1,2.7-1.8,5.1-2.6,7.2l-2.1,5.6-1.9,4.7-1.9,4.3h-2c-.6-1.5-1.3-2.9-1.9-4.3l-1.9-4.7c-.6-1.6-1.4-3.5-2.1-5.6s-1.7-4.5-2.6-7.2Z"/><path class="cls-2" d="M249,131.6V109.8h12.6v1.8H251.2v7.6h9.3V121h-9.3v8.7h11.2v1.9Z"/><path class="cls-2" d="M281,116.3a5.4,5.4,0,0,1-1.3,3.9,7.7,7.7,0,0,1-3.4,2l1.3,1.7a24.9,24.9,0,0,1,1.7,2.4l1.6,2.6a23.4,23.4,0,0,1,1.4,2.7H280a20.1,20.1,0,0,0-1.4-2.5,21.3,21.3,0,0,0-1.6-2.5l-1.5-2.2-1.4-1.7h-5.5v8.8h-2.1V110.2l2.6-.5h2.8c3,0,5.3.6,6.8,1.7A5.9,5.9,0,0,1,281,116.3Zm-8.8-4.9h-2.1l-1.5.2v9.2h5.8a8.6,8.6,0,0,0,2.3-.6,5,5,0,0,0,1.5-1.4,4.6,4.6,0,0,0,.6-2.5,4.3,4.3,0,0,0-.6-2.4,5.4,5.4,0,0,0-1.5-1.5,6.6,6.6,0,0,0-2.1-.8Z"/><path class="cls-2" d="M301.5,131.6l-1.2-3.1c-.3-1-.7-2-1-2.9H288.7c-.4.9-.7,1.9-1.1,2.9s-.7,2-1.1,3.1h-2.2l2.3-6.4c.7-1.9,1.5-3.8,2.2-5.5l2.1-5.1c.7-1.6,1.4-3.2,2.2-4.8H295l2.2,4.8q1.1,2.4,2.1,5.1c.7,1.7,1.4,3.6,2.1,5.5s1.6,4.1,2.4,6.4ZM294,112.2c-.8,1.8-1.6,3.7-2.3,5.5s-1.6,3.9-2.4,6.1h9.3c-.8-2.2-1.5-4.2-2.3-6.1S294.8,114,294,112.2Z"/><path class="cls-2" d="M315.7,132a10,10,0,0,1-3.9-.7,9.7,9.7,0,0,1-3.1-2.2,10.7,10.7,0,0,1-2.1-3.6,14.2,14.2,0,0,1-.8-4.8,14.4,14.4,0,0,1,.8-4.9,11.1,11.1,0,0,1,2.3-3.6,10.2,10.2,0,0,1,3.2-2.2,12.2,12.2,0,0,1,3.8-.7l2.2.2,1.8.4,1.3.4.8.5-.7,1.8-2-.9a8.5,8.5,0,0,0-3-.5,9.6,9.6,0,0,0-3.6.7,7.3,7.3,0,0,0-2.6,2,8.4,8.4,0,0,0-1.5,3,11.3,11.3,0,0,0-.5,3.8,12.3,12.3,0,0,0,.5,3.9,7.1,7.1,0,0,0,1.5,3,7.9,7.9,0,0,0,2.5,1.9,8.8,8.8,0,0,0,3.3.6,11.6,11.6,0,0,0,3.5-.4,7.1,7.1,0,0,0,2.1-.8l.6,1.9-.7.3-1.4.4-1.9.4Z"/><path class="cls-2" d="M340.4,116.3a5.9,5.9,0,0,1-1.3,3.9,7.7,7.7,0,0,1-3.4,2l1.3,1.7a25,25,0,0,1,1.6,2.4,30.5,30.5,0,0,1,3.1,5.3h-2.3a20.1,20.1,0,0,0-1.4-2.5c-.5-.9-1.1-1.7-1.6-2.5s-1.1-1.5-1.6-2.2l-1.3-1.7H328v8.8h-2.2V110.2l2.7-.5h2.8c3,0,5.3.6,6.8,1.7A5.9,5.9,0,0,1,340.4,116.3Zm-8.8-4.9h-2.1l-1.5.2v9.2h5.7a7,7,0,0,0,2.3-.6,4.4,4.4,0,0,0,1.6-1.4,5.8,5.8,0,0,0,.5-2.5,4,4,0,0,0-2-3.9,6.6,6.6,0,0,0-2.1-.8Z"/><path class="cls-2" d="M353.1,132a10.6,10.6,0,0,1-3.7-.6,7.6,7.6,0,0,1-2.4-1.8,6.7,6.7,0,0,1-1.4-2.8,11.5,11.5,0,0,1-.4-3.3V109.8h2.1v13.4a13.7,13.7,0,0,0,.4,3.1,6.6,6.6,0,0,0,1.2,2.2,5.7,5.7,0,0,0,1.8,1.2,6.7,6.7,0,0,0,2.4.4,6.1,6.1,0,0,0,2.4-.4,7.6,7.6,0,0,0,1.9-1.2,6.5,6.5,0,0,0,1.1-2.2,9.6,9.6,0,0,0,.5-3.1V109.8h2.1v13.7a11.5,11.5,0,0,1-.4,3.3,8.2,8.2,0,0,1-1.4,2.8,8,8,0,0,1-2.5,1.8A9.9,9.9,0,0,1,353.1,132Z"/><path class="cls-2" d="M379.9,111.7l-1.8,2.2-2.1,2.7c-.8,1-1.5,2.1-2.3,3.2a40.5,40.5,0,0,0-2.3,3.4c-.8,1.1-1.5,2.3-2.2,3.4a34.9,34.9,0,0,0-1.8,3.1h12.8v1.9H365V130c.5-.9,1-1.9,1.7-3s1.3-2.2,2-3.3l2.3-3.5,2.4-3.3,2.2-2.9,1.9-2.4H365.6v-1.8h14.3Z"/><rect class="cls-3" y="84.4" width="608" height="4.37"/><path class="cls-4" d="M52.2,66.4a4.5,4.5,0,0,1-2-.4,2.4,2.4,0,0,1-1.4-1,3.8,3.8,0,0,1-.9-1.5,5.8,5.8,0,0,1-.2-1.9V54h1.6v7.4a4,4,0,0,0,.8,2.7,3.2,3.2,0,0,0,2.1.8l1.2-.2a1.5,1.5,0,0,0,.9-.6,2.4,2.4,0,0,0,.6-1.1,3.7,3.7,0,0,0,.2-1.6V54h1.7v7.6a5.8,5.8,0,0,1-.2,1.9,3.8,3.8,0,0,1-.9,1.5,2.4,2.4,0,0,1-1.4,1A4.6,4.6,0,0,1,52.2,66.4Z"/><path class="cls-4" d="M59.7,57.3l1.4-.3h2.2a4.8,4.8,0,0,1,1.8.3l1.1.8a3,3,0,0,1,.6,1.4A7.8,7.8,0,0,1,67,61v5.1H65.4V61.4c0-.6-.1-1-.1-1.4a2.3,2.3,0,0,0-.4-1,1.8,1.8,0,0,0-.7-.5l-1.1-.2H61.3v7.6H59.7Z"/><path class="cls-4" d="M70.5,55.4a1.1,1.1,0,0,1-.8-.3.9.9,0,0,1-.3-.7,1,1,0,0,1,.3-.8,1.1,1.1,0,0,1,.8-.3.9.9,0,0,1,.7.3,1,1,0,0,1,.3.8,1,1,0,0,1-1,1Zm.8,10.7H69.7v-9h1.6Z"/><path class="cls-4" d="M80,52.9l1.6-.3V65.9l-1.4.3-2,.2a5.3,5.3,0,0,1-1.9-.4,3.6,3.6,0,0,1-2.4-2.4,6.4,6.4,0,0,1-.3-2,5.8,5.8,0,0,1,.3-1.9,2.8,2.8,0,0,1,.8-1.5,2.9,2.9,0,0,1,1.2-1,5.2,5.2,0,0,1,1.8-.3,3.2,3.2,0,0,1,1.4.2,1.9,1.9,0,0,1,.9.4ZM80,59l-.9-.5-1.2-.2-1.2.2a2.7,2.7,0,0,0-.8.7,3.7,3.7,0,0,0-.5,1.1,5.3,5.3,0,0,0-.1,1.3,3.7,3.7,0,0,0,.8,2.5,2.9,2.9,0,0,0,2.1.8h1.1l.7-.2Z"/><path class="cls-4" d="M87.3,56.8a4.3,4.3,0,0,1,1.7.3,4.1,4.1,0,0,1,1.1.7,3.7,3.7,0,0,1,.5,1.1,3.2,3.2,0,0,1,.2,1.4V66H85.9a4.3,4.3,0,0,1-1.2-.5,2.2,2.2,0,0,1-.7-.9,2.9,2.9,0,0,1-.3-1.4,2,2,0,0,1,.4-1.3,2,2,0,0,1,.8-.8,3.3,3.3,0,0,1,1.2-.5l1.5-.2H89c.1,0,.2,0,.2.1v-.5a2.2,2.2,0,0,0-.1-.8.9.9,0,0,0-.3-.7,1,1,0,0,0-.6-.5l-1-.2H85.8l-.9.3-.2-1.4,1-.2Zm.2,8.2h1.7V62.1H86.9l-.7.2-.6.5a1.4,1.4,0,0,0-.2.7,1.4,1.4,0,0,0,.5,1.2A2.5,2.5,0,0,0,87.5,65Z"/><path class="cls-4" d="M99.4,52.9l1.6-.3V65.9l-1.4.3-2,.2a5.3,5.3,0,0,1-1.9-.4,3.6,3.6,0,0,1-2.4-2.4,6.4,6.4,0,0,1-.3-2,5.8,5.8,0,0,1,.3-1.9,3.6,3.6,0,0,1,.8-1.5,2.7,2.7,0,0,1,1.3-1,4.3,4.3,0,0,1,1.7-.3,3.2,3.2,0,0,1,1.4.2,1.9,1.9,0,0,1,.9.4Zm0,6.1-.9-.5-1.2-.2-1.2.2a2.7,2.7,0,0,0-.8.7,3.7,3.7,0,0,0-.5,1.1,5.3,5.3,0,0,0-.1,1.3,3.7,3.7,0,0,0,.8,2.5,2.9,2.9,0,0,0,2.1.8h1.1l.7-.2Z"/><path class="cls-4" d="M113.7,52.9l1.6-.3V65.9l-1.4.3-2,.2A5.8,5.8,0,0,1,110,66a3.4,3.4,0,0,1-1.4-.9,3.8,3.8,0,0,1-.9-1.5,4.5,4.5,0,0,1-.4-2,5.8,5.8,0,0,1,.3-1.9,3.6,3.6,0,0,1,.8-1.5,3.2,3.2,0,0,1,1.3-1,4.7,4.7,0,0,1,1.7-.3,3.2,3.2,0,0,1,1.4.2,1.9,1.9,0,0,1,.9.4Zm0,6.1-.8-.5-1.3-.2-1.2.2a2.7,2.7,0,0,0-.8.7,3.6,3.6,0,0,0-.4,1.1,5.1,5.1,0,0,0-.2,1.3,3.7,3.7,0,0,0,.8,2.5,2.9,2.9,0,0,0,2.1.8H113l.7-.2Z"/><path class="cls-4" d="M117.6,61.6a4.6,4.6,0,0,1,.4-2.1,3.8,3.8,0,0,1,.9-1.5,3.8,3.8,0,0,1,1.3-.9,4.1,4.1,0,0,1,1.6-.3,3.5,3.5,0,0,1,2.8,1.2,5.4,5.4,0,0,1,1,3.5v.2c0,.1-.1.2-.1.3h-6.2a4.1,4.1,0,0,0,.8,2.2,3.2,3.2,0,0,0,2.3.7h1.4l.9-.3.2,1.4-1,.3-1.7.2a6.5,6.5,0,0,1-2.1-.4,4.5,4.5,0,0,1-1.4-1,3.6,3.6,0,0,1-.8-1.5A5.8,5.8,0,0,1,117.6,61.6Zm6.3-.9a2.8,2.8,0,0,0-.6-1.8,2.2,2.2,0,0,0-1.6-.7l-.9.2-.8.6a2,2,0,0,0-.4.8,2.9,2.9,0,0,0-.2.9Z"/><path class="cls-4" d="M130.6,66.3a2.9,2.9,0,0,1-2.1-.6,2.7,2.7,0,0,1-.6-1.9V52.9l1.6-.3V63.5a1.5,1.5,0,0,0,.1.7.8.8,0,0,0,.2.4.5.5,0,0,0,.4.2l.6.2Z"/><path class="cls-4" d="M139.6,64.9q2.7,0,2.7-1.8a1.4,1.4,0,0,0-.3-.9,1.3,1.3,0,0,0-.6-.7l-.9-.5-1.1-.4-1.3-.5-1-.7a3.6,3.6,0,0,1-.7-1,2.5,2.5,0,0,1-.2-1.3,2.8,2.8,0,0,1,1-2.4,4.9,4.9,0,0,1,3-.9,6.2,6.2,0,0,1,2,.2,4.4,4.4,0,0,1,1.3.5l-.5,1.4a3.8,3.8,0,0,0-1.1-.5l-1.7-.2h-.9l-.7.3-.5.6a1.9,1.9,0,0,0-.2.7,2.4,2.4,0,0,0,.2.9,1.2,1.2,0,0,0,.5.5,2.6,2.6,0,0,0,.9.5l1,.4,1.4.7a3,3,0,0,1,1.1.7,2.5,2.5,0,0,1,.8,1,3.7,3.7,0,0,1,.3,1.5,2.9,2.9,0,0,1-1.2,2.5,6.2,6.2,0,0,1-3.3.8h-1.3l-1.1-.2-.8-.3-.5-.2.5-1.4,1.2.5Z"/><path class="cls-4" d="M146.8,55.4a.9.9,0,0,1-.7-.3,1,1,0,0,1-.4-.7,1,1,0,0,1,.4-.8,1,1,0,0,1,1.4,0,1,1,0,0,1,.3.8,1,1,0,0,1-1,1Zm.8,10.7H146v-9h1.6Z"/><path class="cls-4" d="M152.5,65a2.8,2.8,0,0,0,1.5-.3.9.9,0,0,0,.5-.8,1.4,1.4,0,0,0-.5-1l-1.5-.8-1-.4a2.6,2.6,0,0,1-.9-.5,1.8,1.8,0,0,1-.5-.7,1.6,1.6,0,0,1-.2-1,2.8,2.8,0,0,1,.8-2,4.4,4.4,0,0,1,2.5-.7h2.4l-.3,1.4-.8-.3h-1.3a2.1,2.1,0,0,0-1.2.3,1,1,0,0,0-.4,1.3l.3.5.6.3.9.3,1.1.5.9.6a1.8,1.8,0,0,1,.5.7,2,2,0,0,1,.2,1.1,2.2,2.2,0,0,1-.9,1.9,4.8,4.8,0,0,1-2.7.7l-1.9-.2-.9-.3.3-1.4.9.3Z"/><path class="cls-4" d="M159.7,57.1h3.5v1.3h-3.5v4.2c0,.5.1.8.1,1.1a2.4,2.4,0,0,0,.3.7l.6.4h.7a2.2,2.2,0,0,0,1.2-.2l.6-.2.3,1.4-.8.3h-1.4a3.7,3.7,0,0,1-1.6-.2,2.2,2.2,0,0,1-.9-.7,2.3,2.3,0,0,1-.6-1.2,7.6,7.6,0,0,1-.1-1.6V54.5l1.6-.2Z"/><path class="cls-4" d="M164.5,61.6a6.5,6.5,0,0,1,.4-2.1,3.8,3.8,0,0,1,.9-1.5,3.4,3.4,0,0,1,1.4-.9,4,4,0,0,1,1.5-.3,3.5,3.5,0,0,1,2.8,1.2,4.9,4.9,0,0,1,1,3.5V62h-6.3a3.4,3.4,0,0,0,.9,2.2,2.8,2.8,0,0,0,2.2.7h1.4l.9-.3.3,1.4-1.1.3-1.7.2a5.4,5.4,0,0,1-2-.4,4,4,0,0,1-1.5-1,5.3,5.3,0,0,1-.8-1.5A5.8,5.8,0,0,1,164.5,61.6Zm6.3-.9a2.8,2.8,0,0,0-.6-1.8,2,2,0,0,0-1.5-.7l-1,.2-.7.6a2.2,2.2,0,0,0-.5.8,2.9,2.9,0,0,0-.2.9Z"/><path class="cls-4" d="M174.8,57.3l1.5-.3h2.1a3.4,3.4,0,0,1,1.5.2l1,.7.4-.2c.1-.2.4-.3.6-.4l.9-.2h1a4,4,0,0,1,1.7.3,2.7,2.7,0,0,1,1,.8,2.4,2.4,0,0,1,.5,1.4,7.8,7.8,0,0,1,.2,1.6v5.1h-1.7V60a4.6,4.6,0,0,0-.3-.9,1.7,1.7,0,0,0-.6-.6l-1-.2-1.3.2-.8.4a3.6,3.6,0,0,1,.2,1,4.5,4.5,0,0,1,.1,1.1v5.1h-1.6V61.4a6.1,6.1,0,0,0-.1-1.4,4.6,4.6,0,0,0-.3-.9,1.7,1.7,0,0,0-.6-.6l-1-.2h-1.8v7.6h-1.6Z"/><path class="cls-4" d="M192.8,56.8a4.3,4.3,0,0,1,1.7.3,2.6,2.6,0,0,1,1,.7,2.4,2.4,0,0,1,.6,1.1,5.9,5.9,0,0,1,.2,1.4V66h-5l-1.1-.5a2.2,2.2,0,0,1-.7-.9,2.9,2.9,0,0,1-.3-1.4,2.8,2.8,0,0,1,.3-1.3,2.4,2.4,0,0,1,.9-.8,3.3,3.3,0,0,1,1.2-.5l1.4-.2h1.5c.1,0,.2,0,.2.1v-.5a2.2,2.2,0,0,0-.1-.8.9.9,0,0,0-.3-.7l-.6-.5-1-.2h-1.4l-.9.3-.2-1.4,1-.2Zm.1,8.2h1.8V62.1h-2.3l-.7.2a1,1,0,0,0-.6.5.8.8,0,0,0-.2.7c0,.6.1,1,.5,1.2A2.4,2.4,0,0,0,192.9,65Z"/><path class="cls-4" d="M211,61.6a11.1,11.1,0,0,1-.2,1.9A5.3,5.3,0,0,1,210,65a4.1,4.1,0,0,1-1.3,1,4.8,4.8,0,0,1-1.8.4,3.2,3.2,0,0,1-1.4-.3,1.9,1.9,0,0,1-.9-.4v3.7H203V57.3l1.5-.3h2a4.8,4.8,0,0,1,1.8.3,3.8,3.8,0,0,1,1.5.9,6,6,0,0,1,.9,1.5A6.4,6.4,0,0,1,211,61.6Zm-1.7,0a3.1,3.1,0,0,0-.8-2.4,2.6,2.6,0,0,0-2.1-.9h-1.8v5.7l.9.5,1.2.2,1.2-.2a1.9,1.9,0,0,0,.8-.7,3.7,3.7,0,0,0,.5-1.1A5.3,5.3,0,0,0,209.3,61.6Z"/><path class="cls-4" d="M216.2,56.8a4.3,4.3,0,0,1,1.7.3,4.1,4.1,0,0,1,1.1.7,3.9,3.9,0,0,1,.6,1.1,6.1,6.1,0,0,1,.1,1.4V66h-4.9a2.8,2.8,0,0,1-1.1-.5,1.8,1.8,0,0,1-.8-.9,5.2,5.2,0,0,1-.2-1.4,2.8,2.8,0,0,1,.3-1.3,2,2,0,0,1,.8-.8l1.2-.5,1.5-.2h1.4c.1,0,.2,0,.2.1V59.6a1.6,1.6,0,0,0-.4-.7,1,1,0,0,0-.6-.5l-1-.2h-1.4l-.9.3-.2-1.4,1.1-.2Zm.2,8.2h1.7V62.1h-2.2l-.8.2-.6.5a1.4,1.4,0,0,0-.2.7,1.2,1.2,0,0,0,.6,1.2A2.1,2.1,0,0,0,216.4,65Z"/><path class="cls-4" d="M225.8,56.9h1.8l-.3,1.4h-3.2v7.6h-1.7V57.4l1.5-.3A5.5,5.5,0,0,1,225.8,56.9Z"/><path class="cls-4" d="M232.1,56.8a4.3,4.3,0,0,1,1.7.3,2.6,2.6,0,0,1,1,.7,2.4,2.4,0,0,1,.6,1.1,5.9,5.9,0,0,1,.2,1.4V66h-5l-1.1-.5a2.2,2.2,0,0,1-.7-.9,2.9,2.9,0,0,1-.3-1.4,2.8,2.8,0,0,1,.3-1.3,2.4,2.4,0,0,1,.9-.8,3.3,3.3,0,0,1,1.2-.5l1.5-.2h1.4c.1,0,.2,0,.2.1v-.5a2.2,2.2,0,0,0-.1-.8.9.9,0,0,0-.3-.7,1,1,0,0,0-.6-.5l-1-.2h-1.4l-.9.3-.2-1.4,1-.2Zm.1,8.2H234V62.1h-2.3l-.7.2a1,1,0,0,0-.6.5.8.8,0,0,0-.2.7,1.4,1.4,0,0,0,.5,1.2A2.4,2.4,0,0,0,232.2,65Z"/><path class="cls-4" d="M245.1,66.3a3.2,3.2,0,0,1-2.2-.6,2.7,2.7,0,0,1-.6-1.9V52.9l1.6-.3V63.5a1.5,1.5,0,0,0,.1.7l.2.4.4.2.7.2Z"/><path class="cls-4" d="M250,56.8a4.3,4.3,0,0,1,1.7.3,4.1,4.1,0,0,1,1.1.7l.6,1.1a6.1,6.1,0,0,1,.1,1.4V66h-4.9a4.3,4.3,0,0,1-1.2-.5,2.2,2.2,0,0,1-.7-.9,3,3,0,0,1-.2-1.4,2.8,2.8,0,0,1,.3-1.3,2,2,0,0,1,.8-.8,3.3,3.3,0,0,1,1.2-.5l1.5-.2h1.4c.1,0,.2,0,.2.1V59.6a1.6,1.6,0,0,0-.4-.7,1,1,0,0,0-.6-.5l-1-.2h-1.4l-.9.3-.2-1.4,1-.2Zm.2,8.2h1.7V62.1h-2.3l-.7.2-.6.5a1.4,1.4,0,0,0-.2.7,1.2,1.2,0,0,0,.6,1.2A2.1,2.1,0,0,0,250.2,65Z"/><path class="cls-4" d="M265.6,66.4a6.1,6.1,0,0,1-2.4-.4,5.7,5.7,0,0,1-1.8-1.2,6.4,6.4,0,0,1-1.1-2,9.3,9.3,0,0,1,0-5.4,5.8,5.8,0,0,1,1.3-2,5.7,5.7,0,0,1,1.8-1.2,5.9,5.9,0,0,1,2.3-.4H267l1.1.2.7.3.4.2-.5,1.4-.5-.2-.6-.3-.9-.2h-.9a4.7,4.7,0,0,0-1.7.4,3.8,3.8,0,0,0-1.3.9,4.8,4.8,0,0,0-.8,1.6,6,6,0,0,0-.3,2,12.3,12.3,0,0,0,.2,2,3.6,3.6,0,0,0,.8,1.5,3.4,3.4,0,0,0,1.3,1,4.3,4.3,0,0,0,1.7.3l2-.2a3.8,3.8,0,0,0,1.1-.5l.5,1.4-.5.3-.8.2-1.1.2Z"/><path class="cls-4" d="M274,56.8a4.3,4.3,0,0,1,1.7.3,4.1,4.1,0,0,1,1.1.7,3.7,3.7,0,0,1,.5,1.1,3.2,3.2,0,0,1,.2,1.4V66h-4.9a4.3,4.3,0,0,1-1.2-.5,2.2,2.2,0,0,1-.7-.9,2.9,2.9,0,0,1-.3-1.4,2.8,2.8,0,0,1,.3-1.3,3.4,3.4,0,0,1,.9-.8,3.3,3.3,0,0,1,1.2-.5l1.5-.2h1.4c.1,0,.2,0,.2.1v-.5a2.2,2.2,0,0,0-.1-.8.9.9,0,0,0-.3-.7,1,1,0,0,0-.6-.5l-1-.2h-1.4l-.9.3-.2-1.4,1-.2Zm.2,8.2h1.7V62.1h-2.3l-.7.2-.6.5a1.4,1.4,0,0,0-.2.7,1.4,1.4,0,0,0,.5,1.2A2.5,2.5,0,0,0,274.2,65Z"/><path class="cls-4" d="M283.6,56.9h1.8l-.3,1.4h-3.3v7.6h-1.6V57.4l1.4-.3A6.5,6.5,0,0,1,283.6,56.9Z"/><path class="cls-4" d="M290.3,56.9h1.8l-.3,1.4h-3.2v7.6H287V57.4l1.4-.3A5.8,5.8,0,0,1,290.3,56.9Z"/><path class="cls-4" d="M293.2,61.6a6.6,6.6,0,0,1,.3-2.1,5.6,5.6,0,0,1,1-1.5,3,3,0,0,1,1.3-.9,4,4,0,0,1,1.5-.3,3.2,3.2,0,0,1,2.8,1.2,4.9,4.9,0,0,1,1,3.5V62h-6.2a3.4,3.4,0,0,0,.8,2.2,2.9,2.9,0,0,0,2.2.7h1.5l.9-.3.2,1.4-1,.3-1.7.2a6.5,6.5,0,0,1-2.1-.4,3.6,3.6,0,0,1-1.4-1,2.8,2.8,0,0,1-.8-1.5A5.8,5.8,0,0,1,293.2,61.6Zm6.2-.9a2.7,2.7,0,0,0-.5-1.8,2.2,2.2,0,0,0-1.6-.7l-1,.2-.7.6a2.2,2.2,0,0,0-.5.8c-.1.3-.1.6-.2.9Z"/><path class="cls-4" d="M306.8,56.9h1.8l-.2,1.4h-3.3v7.6h-1.6V57.4l1.4-.3A5.8,5.8,0,0,1,306.8,56.9Z"/><path class="cls-4" d="M313.1,56.8a4.3,4.3,0,0,1,1.7.3,4.1,4.1,0,0,1,1.1.7,3.9,3.9,0,0,1,.6,1.1,6.1,6.1,0,0,1,.1,1.4V66h-4.9a2.8,2.8,0,0,1-1.1-.5,1.8,1.8,0,0,1-.8-.9,3,3,0,0,1-.2-1.4,2.8,2.8,0,0,1,.3-1.3,2,2,0,0,1,.8-.8l1.2-.5,1.5-.2h1.4c.1,0,.2,0,.2.1V59.6a1.6,1.6,0,0,0-.4-.7,1,1,0,0,0-.6-.5l-1-.2h-1.4l-.9.3-.2-1.4,1.1-.2Zm.2,8.2H315V62.1h-2.3l-.7.2-.6.5a1.4,1.4,0,0,0-.2.7,1.2,1.2,0,0,0,.6,1.2A2.1,2.1,0,0,0,313.3,65Z"/><path class="cls-4" d="M329.2,52.9l1.7-.3V65.9l-1.5.3-2,.2a5.8,5.8,0,0,1-1.9-.4,4.2,4.2,0,0,1-1.4-.9,3.8,3.8,0,0,1-.9-1.5,6.4,6.4,0,0,1-.3-2,5.8,5.8,0,0,1,.2-1.9,5.3,5.3,0,0,1,.8-1.5,4.1,4.1,0,0,1,1.3-1,4.7,4.7,0,0,1,1.7-.3,3,3,0,0,1,1.4.2,1.9,1.9,0,0,1,.9.4Zm0,6.1-.8-.5-1.2-.2-1.2.2a3.1,3.1,0,0,0-.9.7,3.6,3.6,0,0,0-.4,1.1,5.3,5.3,0,0,0-.1,1.3,3.7,3.7,0,0,0,.7,2.5,3.2,3.2,0,0,0,2.1.8h1.1l.7-.2Z"/><path class="cls-4" d="M333.1,61.6a6.5,6.5,0,0,1,.4-2.1,3.8,3.8,0,0,1,.9-1.5,3.4,3.4,0,0,1,1.4-.9,4,4,0,0,1,1.5-.3,3.5,3.5,0,0,1,2.8,1.2,4.9,4.9,0,0,1,1,3.5V62h-6.3a3.4,3.4,0,0,0,.9,2.2,2.8,2.8,0,0,0,2.2.7h1.4l.9-.3.3,1.4-1.1.3-1.7.2a5.4,5.4,0,0,1-2-.4,4,4,0,0,1-1.5-1,5.3,5.3,0,0,1-.8-1.5A5.8,5.8,0,0,1,333.1,61.6Zm6.3-.9a2.8,2.8,0,0,0-.6-1.8,2,2,0,0,0-1.5-.7l-1,.2-.7.6a2.2,2.2,0,0,0-.5.8,2.9,2.9,0,0,0-.2.9Z"/><path class="cls-4" d="M350.2,66.3a3.4,3.4,0,0,1-2.2-.6,2.7,2.7,0,0,1-.6-1.9V52.9l1.6-.3V63.5c0,.3.1.5.1.7s.1.3.2.4l.5.2.6.2Z"/><path class="cls-4" d="M355.2,56.8a3.8,3.8,0,0,1,1.6.3,3,3,0,0,1,1.1.7,2.4,2.4,0,0,1,.6,1.1,5.9,5.9,0,0,1,.2,1.4V66h-5l-1.1-.5a2.4,2.4,0,0,1-.8-.9,5.2,5.2,0,0,1-.2-1.4,2.8,2.8,0,0,1,.3-1.3,3,3,0,0,1,.8-.8l1.2-.5,1.5-.2h1.7v-.5c0-.3-.1-.5-.1-.8l-.3-.7a1.8,1.8,0,0,0-.7-.5l-1-.2h-1.4l-.9.3-.2-1.4,1.1-.2Zm.1,8.2h1.8V62.1h-2.3l-.8.2-.6.5a1.4,1.4,0,0,0-.2.7,1.2,1.2,0,0,0,.6,1.2A2.4,2.4,0,0,0,355.3,65Z"/><path class="cls-4" d="M363.5,65a2.6,2.6,0,0,0,1.4-.3.7.7,0,0,0,.5-.8,1.1,1.1,0,0,0-.5-1l-1.5-.8-1-.4-.8-.5a1.3,1.3,0,0,1-.6-.7,3,3,0,0,1-.2-1,2.5,2.5,0,0,1,.9-2,4.3,4.3,0,0,1,2.4-.7h2.5l-.3,1.4-.8-.3h-1.4a2.7,2.7,0,0,0-1.2.3.9.9,0,0,0-.5.8.7.7,0,0,0,.1.5l.4.5.6.3.8.3,1.2.5a2.4,2.4,0,0,1,.8.6,2,2,0,0,1,.6.7,3.6,3.6,0,0,1,.2,1.1,2.3,2.3,0,0,1-1,1.9,4.7,4.7,0,0,1-2.6.7l-1.9-.2-1-.3.3-1.4.9.3Z"/><path class="cls-4" d="M378.7,64.5l-.5-1.1a14.7,14.7,0,0,0-.6-1.4,10.1,10.1,0,0,0-.7-1.5,10.7,10.7,0,0,0-.7-1.5l-.6-1.3-.5-.9q-.2,2.1-.3,4.5c-.1,1.6-.1,3.2-.2,4.8h-1.7c.1-1,.1-2.1.2-3.1s.1-2.1.2-3.2.2-2,.2-3l.3-2.8h1.5c.3.6.7,1.2,1,1.9a15.1,15.1,0,0,1,1.1,2.2c.4.7.7,1.5,1.1,2.2l.9,2.1a22,22,0,0,0,.9-2.1l1.1-2.2c.3-.8.7-1.5,1-2.2l1.1-1.9h1.4c.4,3.9.7,8,.9,12.1h-1.6c-.1-1.6-.1-3.2-.2-4.8s-.2-3.1-.3-4.5a3.6,3.6,0,0,0-.5.9l-.6,1.3a10.7,10.7,0,0,0-.7,1.5,10.1,10.1,0,0,0-.7,1.5c-.3.5-.5,1-.7,1.4a7.6,7.6,0,0,0-.4,1.1Z"/><path class="cls-4" d="M391.3,56.8a4.3,4.3,0,0,1,1.7.3,4.1,4.1,0,0,1,1.1.7,3.7,3.7,0,0,1,.5,1.1,3.2,3.2,0,0,1,.2,1.4V66h-4.9a4.3,4.3,0,0,1-1.2-.5,2.2,2.2,0,0,1-.7-.9,2.9,2.9,0,0,1-.3-1.4,2.8,2.8,0,0,1,.3-1.3,3.4,3.4,0,0,1,.9-.8,3.3,3.3,0,0,1,1.2-.5l1.5-.2H393c.1,0,.2,0,.2.1v-.5a2.2,2.2,0,0,0-.1-.8.9.9,0,0,0-.3-.7,1,1,0,0,0-.6-.5l-1-.2h-1.4l-.9.3-.2-1.4,1-.2Zm.2,8.2h1.7V62.1h-2.3l-.7.2-.6.5a1.4,1.4,0,0,0-.2.7,1.4,1.4,0,0,0,.5,1.2A2.5,2.5,0,0,0,391.5,65Z"/><path class="cls-4" d="M397,61.6a4.6,4.6,0,0,1,.4-2.1,3.8,3.8,0,0,1,.9-1.5,3.8,3.8,0,0,1,1.3-.9,4,4,0,0,1,1.5-.3A3.6,3.6,0,0,1,404,58a5.4,5.4,0,0,1,.9,3.5V62h-6.2a3.4,3.4,0,0,0,.8,2.2,3,3,0,0,0,2.3.7h1.4l.9-.3.2,1.4-1,.3-1.7.2a6.5,6.5,0,0,1-2.1-.4,4.5,4.5,0,0,1-1.4-1,3.6,3.6,0,0,1-.8-1.5A5.8,5.8,0,0,1,397,61.6Zm6.2-.9a2.3,2.3,0,0,0-.5-1.8,2.2,2.2,0,0,0-1.6-.7l-1,.2-.7.6a2,2,0,0,0-.4.8,3.2,3.2,0,0,0-.3.9Z"/><path class="cls-4" d="M409.4,65a3.1,3.1,0,0,0,1.5-.3.8.8,0,0,0,.4-.8,1.3,1.3,0,0,0-.4-1l-1.6-.8-1-.4-.8-.5-.6-.7a3,3,0,0,1-.2-1,2.5,2.5,0,0,1,.9-2,4.3,4.3,0,0,1,2.4-.7h2.5l-.3,1.4-.8-.3H410a2.7,2.7,0,0,0-1.2.3.9.9,0,0,0-.5.8.8.8,0,0,0,.2.5c0,.2.1.3.3.5l.6.3.8.3,1.2.5a2.4,2.4,0,0,1,.8.6,1.3,1.3,0,0,1,.6.7,3.6,3.6,0,0,1,.2,1.1,2.2,2.2,0,0,1-.9,1.9,5.4,5.4,0,0,1-2.7.7l-1.9-.2-.9-.3.3-1.4.9.3Z"/><path class="cls-4" d="M416.6,57.1H420v1.3h-3.4v4.2a3.4,3.4,0,0,0,.1,1.1,2.4,2.4,0,0,0,.3.7,1,1,0,0,0,.5.4h.8a1.8,1.8,0,0,0,1.1-.2l.7-.2.3,1.4-.9.3h-1.4a3.4,3.4,0,0,1-1.5-.2l-1-.7a3.3,3.3,0,0,1-.5-1.2,7.6,7.6,0,0,1-.1-1.6V54.5l1.6-.2Z"/><path class="cls-4" d="M425.4,56.9h1.9l-.3,1.4h-3.3v7.6h-1.6V57.4l1.4-.3A5.8,5.8,0,0,1,425.4,56.9Z"/><path class="cls-4" d="M431.8,56.8a3.8,3.8,0,0,1,1.6.3,3,3,0,0,1,1.1.7,2.4,2.4,0,0,1,.6,1.1,5.9,5.9,0,0,1,.2,1.4V66h-5l-1.1-.5a1.6,1.6,0,0,1-.7-.9,2.9,2.9,0,0,1-.3-1.4,2.8,2.8,0,0,1,.3-1.3,3,3,0,0,1,.8-.8l1.2-.5,1.5-.2h1.7v-.5c0-.3-.1-.5-.1-.8l-.3-.7-.6-.5-1.1-.2h-1.4l-.9.3-.2-1.4,1.1-.2Zm.1,8.2h1.8V62.1h-2.3l-.8.2a1.2,1.2,0,0,0-.5.5.9.9,0,0,0-.3.7,1.2,1.2,0,0,0,.6,1.2A2.4,2.4,0,0,0,431.9,65Z"/><path class="cls-4" d="M440.1,65a2.6,2.6,0,0,0,1.4-.3.7.7,0,0,0,.5-.8,1.3,1.3,0,0,0-.4-1l-1.6-.8-1-.4-.8-.5a1.3,1.3,0,0,1-.6-.7,3,3,0,0,1-.2-1,2.5,2.5,0,0,1,.9-2,4.3,4.3,0,0,1,2.4-.7h2.5l-.3,1.4-.8-.3h-1.4a2.7,2.7,0,0,0-1.2.3.9.9,0,0,0-.5.8,4.3,4.3,0,0,0,.1.5l.4.5.6.3.8.3,1.2.5a2.4,2.4,0,0,1,.8.6,2,2,0,0,1,.6.7,3.6,3.6,0,0,1,.2,1.1,2.1,2.1,0,0,1-1,1.9,4.7,4.7,0,0,1-2.6.7l-1.9-.2-.9-.3.3-1.4.8.3Z"/><path class="cls-4" d="M448.7,67.8l.5.2h.6a2.7,2.7,0,0,0,1.5-.4,3.9,3.9,0,0,0,1-1.4q-1.1-2.1-2.1-4.5a36.8,36.8,0,0,1-1.5-4.7h1.7a15.4,15.4,0,0,0,.5,1.7l.6,1.8a10.7,10.7,0,0,0,.7,1.9c.3.7.5,1.3.8,1.9l1.2-3.6.9-3.7h1.7c-.5,1.7-.9,3.3-1.4,4.9s-1.1,3.1-1.7,4.4a9.1,9.1,0,0,1-.7,1.4l-.9.9a3.3,3.3,0,0,1-1,.6h-2.7Z"/><path class="cls-4" d="M465.2,66.3a2.9,2.9,0,0,1-2.1-.6,2.7,2.7,0,0,1-.6-1.9V52.9l1.6-.3V63.5a1.5,1.5,0,0,0,.1.7l.2.4.4.2.7.2Z"/><path class="cls-4" d="M475.3,61.6a6.4,6.4,0,0,1-.3,2,6,6,0,0,1-.9,1.5,3.4,3.4,0,0,1-1.4.9,3.8,3.8,0,0,1-3.4,0,3,3,0,0,1-1.3-.9,6,6,0,0,1-.9-1.5,6.4,6.4,0,0,1-.3-2,5.4,5.4,0,0,1,.3-1.9,5.1,5.1,0,0,1,.9-1.6,3,3,0,0,1,1.3-.9,3.8,3.8,0,0,1,3.4,0,3.4,3.4,0,0,1,1.4.9,5.1,5.1,0,0,1,.9,1.6A5.4,5.4,0,0,1,475.3,61.6Zm-1.7,0a3.6,3.6,0,0,0-.7-2.4,2.5,2.5,0,0,0-3.8,0,5.1,5.1,0,0,0,0,4.8,2.5,2.5,0,0,0,3.8,0A3.6,3.6,0,0,0,473.6,61.6Z"/><path class="cls-4" d="M479.7,65a3.1,3.1,0,0,0,1.5-.3.9.9,0,0,0,.5-.8,1.4,1.4,0,0,0-.5-1l-1.6-.8-1-.4-.8-.5-.6-.7a3,3,0,0,1-.2-1,2.5,2.5,0,0,1,.9-2,4.3,4.3,0,0,1,2.4-.7h2.5l-.3,1.4-.8-.3h-1.4a2,2,0,0,0-1.1.3c-.4.2-.6.4-.6.8a.8.8,0,0,0,.2.5c0,.2.2.3.3.5l.6.3.8.3,1.2.5a2.4,2.4,0,0,1,.8.6,1.3,1.3,0,0,1,.6.7,3.6,3.6,0,0,1,.2,1.1,2.2,2.2,0,0,1-.9,1.9,5.4,5.4,0,0,1-2.7.7l-1.9-.2-.9-.3.3-1.4.9.3Z"/><path class="cls-4" d="M494.9,64.5a7.6,7.6,0,0,0-.4-1.1l-.6-1.4a10.1,10.1,0,0,1-.7-1.5,10.2,10.2,0,0,0-.8-1.5l-.6-1.3-.4-.9c-.2,1.4-.3,2.9-.4,4.5s-.1,3.2-.2,4.8h-1.6c0-1,.1-2.1.1-3.1s.2-2.1.2-3.2l.3-3,.3-2.8h1.5l1,1.9c.3.7.7,1.4,1.1,2.2l1,2.2a22,22,0,0,0,.9,2.1l1-2.1a21.4,21.4,0,0,1,1-2.2l1.1-2.2c.3-.7.7-1.3,1-1.9h1.5c.4,3.9.7,8,.9,12.1h-1.7c0-1.6-.1-3.2-.2-4.8s-.2-3.1-.3-4.5l-.5.9-.6,1.3a10.7,10.7,0,0,0-.7,1.5,10.1,10.1,0,0,0-.7,1.5l-.6,1.4-.5,1.1Z"/><path class="cls-4" d="M507.6,56.8a3.8,3.8,0,0,1,1.6.3,3,3,0,0,1,1.1.7,2.4,2.4,0,0,1,.6,1.1,5.9,5.9,0,0,1,.2,1.4V66h-5l-1.1-.5a2.4,2.4,0,0,1-.8-.9,5.2,5.2,0,0,1-.2-1.4,2.8,2.8,0,0,1,.3-1.3,3,3,0,0,1,.8-.8l1.2-.5,1.5-.2h1.7v-.5c0-.3-.1-.5-.1-.8l-.3-.7a1.8,1.8,0,0,0-.7-.5l-1-.2H506l-.9.3-.2-1.4L506,57Zm.1,8.2h1.8V62.1h-2.3l-.8.2-.6.5a1.4,1.4,0,0,0-.2.7,1.2,1.2,0,0,0,.6,1.2A2.4,2.4,0,0,0,507.7,65Z"/><path class="cls-4" d="M513.2,61.6a6.5,6.5,0,0,1,.4-2.1,3.8,3.8,0,0,1,.9-1.5,3.8,3.8,0,0,1,1.3-.9,4.5,4.5,0,0,1,1.6-.3,3.5,3.5,0,0,1,2.8,1.2,5.4,5.4,0,0,1,1,3.5V62h-6.3a3.4,3.4,0,0,0,.9,2.2,2.8,2.8,0,0,0,2.2.7h1.4l.9-.3.2,1.4-1,.3-1.7.2a5.4,5.4,0,0,1-2-.4,4,4,0,0,1-1.5-1,5.3,5.3,0,0,1-.8-1.5A5.8,5.8,0,0,1,513.2,61.6Zm6.3-.9a2.8,2.8,0,0,0-.6-1.8,2.1,2.1,0,0,0-1.5-.7l-1,.2-.8.6a2,2,0,0,0-.4.8,2.9,2.9,0,0,0-.2.9Z"/><path class="cls-4" d="M525.6,65a2.8,2.8,0,0,0,1.5-.3.9.9,0,0,0,.5-.8,1.4,1.4,0,0,0-.5-1l-1.5-.8-1.1-.4-.8-.5a1.8,1.8,0,0,1-.5-.7,1.6,1.6,0,0,1-.2-1,2.4,2.4,0,0,1,.8-2,4.4,4.4,0,0,1,2.5-.7h2.4l-.3,1.4-.8-.3h-1.3a2.1,2.1,0,0,0-1.2.3,1,1,0,0,0-.4,1.3l.3.5.6.3.9.3,1.1.5a2.8,2.8,0,0,1,.9.6,1.8,1.8,0,0,1,.5.7,2,2,0,0,1,.2,1.1,2.2,2.2,0,0,1-.9,1.9,4.8,4.8,0,0,1-2.7.7l-1.9-.2-.9-.3.3-1.4.9.3Z"/><path class="cls-4" d="M532.8,57.1h3.5v1.3h-3.5v4.2c0,.5.1.8.1,1.1a2.4,2.4,0,0,0,.3.7l.6.4h.7a2.2,2.2,0,0,0,1.2-.2l.6-.2.3,1.4-.8.3h-1.4a3.7,3.7,0,0,1-1.6-.2,2.2,2.2,0,0,1-.9-.7,2.3,2.3,0,0,1-.6-1.2,7.6,7.6,0,0,1-.1-1.6V54.5l1.6-.2Z"/><path class="cls-4" d="M541.7,56.9h1.8l-.3,1.4H540v7.6h-1.7V57.4l1.5-.3A5.5,5.5,0,0,1,541.7,56.9Z"/><path class="cls-4" d="M553.1,61.6a6.4,6.4,0,0,1-.3,2,6,6,0,0,1-.9,1.5,3.4,3.4,0,0,1-1.4.9,3.8,3.8,0,0,1-3.4,0,3,3,0,0,1-1.3-.9,6,6,0,0,1-.9-1.5,6.4,6.4,0,0,1-.3-2,5.4,5.4,0,0,1,.3-1.9,5.1,5.1,0,0,1,.9-1.6,3,3,0,0,1,1.3-.9,3.8,3.8,0,0,1,3.4,0,3.4,3.4,0,0,1,1.4.9,5.1,5.1,0,0,1,.9,1.6A5.4,5.4,0,0,1,553.1,61.6Zm-1.7,0a3.6,3.6,0,0,0-.7-2.4,2.5,2.5,0,0,0-3.8,0,5.1,5.1,0,0,0,0,4.8,2.5,2.5,0,0,0,3.8,0A3.6,3.6,0,0,0,551.4,61.6Z"/><path class="cls-4" d="M557.5,65a3.1,3.1,0,0,0,1.5-.3.8.8,0,0,0,.4-.8,1.3,1.3,0,0,0-.4-1l-1.6-.8-1-.4-.8-.5-.6-.7a3,3,0,0,1-.2-1,2.5,2.5,0,0,1,.9-2,4.3,4.3,0,0,1,2.4-.7h2.5l-.3,1.4-.8-.3h-1.4a2.7,2.7,0,0,0-1.2.3.9.9,0,0,0-.5.8.8.8,0,0,0,.2.5c0,.2.1.3.3.5l.6.3.8.3,1.2.5a2.4,2.4,0,0,1,.8.6,1.3,1.3,0,0,1,.6.7,3.6,3.6,0,0,1,.2,1.1,2.2,2.2,0,0,1-.9,1.9,5.4,5.4,0,0,1-2.7.7l-1.9-.2-.9-.3.3-1.4.9.3Z"/></g></g></svg>